PathFileType	4	(X/Y/Z)	S01_0003_Gait_markers.trc
DataRate	CameraRate	NumFrames	NumMarkers	Units	OrigDataRate	OrigDataStartFrame	OrigNumFrames
250.000000	250.000000	4	54	mm	250.000000	196	314
Frame#	Time	HEAD_ANT			R_HEAD			L_HEAD			C7			R_BACK			L_BACK			STERNUM			R_ACROMION			R_HUM_PROX			R_HUM_ANT			R_HUM_POST			R_ELBOW_LAT			R_ELBOW_MED			R_FOREARM			R_WIRST_LAT			R_WRITS_MED			R_HAND			L_ACROMION			L_HUM_PROX			L_HUM_ANT			L_HUM_POST			L_ELBOW_LAT			L_ELBOW_MED			L_FOREARM			L_WRIST_LAT			L_WIRST_MED			L_HAND			R_ILIAC			SACRUM			L_ILIAC			R_GTROCH			R_THIGH__1			R_THIGH_2			R_THIGH_3			R_THIGH_4			R_SHANK_1			R_SHANK_2			R_SHANK_3			R_SHANK_4			R_HEEL			R_FOOT_LAT			R_FOOT_MED			L_GTROCH			L_THIGH_1			L_THIGH_2			L_THIGH_3			L_THIGH_4			L_SHANK_1			L_SHANK_2			L_SHANK_3			L_SHANK_4			L_HEEL			L_FOOT_LAT			L_FOOT_MED			
		X1	Y1	Z1	X2	Y2	Z2	X3	Y3	Z3	X4	Y4	Z4	X5	Y5	Z5	X6	Y6	Z6	X7	Y7	Z7	X8	Y8	Z8	X9	Y9	Z9	X10	Y10	Z10	X11	Y11	Z11	X12	Y12	Z12	X13	Y13	Z13	X14	Y14	Z14	X15	Y15	Z15	X16	Y16	Z16	X17	Y17	Z17	X18	Y18	Z18	X19	Y19	Z19	X20	Y20	Z20	X21	Y21	Z21	X22	Y22	Z22	X23	Y23	Z23	X24	Y24	Z24	X25	Y25	Z25	X26	Y26	Z26	X27	Y27	Z27	X28	Y28	Z28	X29	Y29	Z29	X30	Y30	Z30	X31	Y31	Z31	X32	Y32	Z32	X33	Y33	Z33	X34	Y34	Z34	X35	Y35	Z35	X36	Y36	Z36	X37	Y37	Z37	X38	Y38	Z38	X39	Y39	Z39	X40	Y40	Z40	X41	Y41	Z41	X42	Y42	Z42	X43	Y43	Z43	X44	Y44	Z44	X45	Y45	Z45	X46	Y46	Z46	X47	Y47	Z47	X48	Y48	Z48	X49	Y49	Z49	X50	Y50	Z50	X51	Y51	Z51	X52	Y52	Z52	X53	Y53	Z53	X54	Y54	Z54	

197	0.784	1301.642700195312	351.5283813476562	1743.476196289062	1240.1142578125	273.4933776855469	1698.197875976562	1242.821166992188	420.2005004882812	1693.771606445312	1102.3857421875	335.0621032714844	1525.321044921875	1037.716430664062	253.4429473876953	1330.637329101562	1033.992309570312	395.561767578125	1325.261352539062	1282.84130859375	335.6471252441406	1367.060546875	1194.727416992188	164.4122009277344	1482.375366210938	1179.394409179688	68.98183441162109	1321.267211914062	1244.983520507812	79.91993713378906	1238.485595703125	1127.150146484375	48.02329635620117	1234.511596679688	1176.937866210938	52.88088607788086	1130.406494140625	1144.716064453125	129.1650390625	1125.788818359375	1286.492065429688	64.58255767822266	952.38916015625	1320.799072265625	110.4330215454102	887.4767456054688	1261.973999023438	58.84605407714844	862.2836303710938	1337.228149414062	56.78973770141602	799.5167846679688	1178.486083984375	505.0965270996094	1476.01171875	1151.330200195312	592.2125244140625	1304.626708984375	1211.51708984375	591.0675048828125	1222.86962890625	1089.693115234375	611.5096435546875	1227.706420898438	1144.613037109375	614.3438110351562	1120.629272460938	1087.0810546875	555.3341674804688	1121.875732421875	1236.458740234375	606.05126953125	940.3815307617188	1271.762451171875	557.700439453125	878.6754760742188	1215.6201171875	612.6178588867188	859.0968627929688	1289.075927734375	609.2755737304688	799.2398071289062	1186.54638671875	156.0783081054688	1071.653686523438	1058.768432617188	325.4021301269531	1045.705322265625	1176.13525390625	501.2637939453125	1074.364624023438	1139.074951171875	144.6789703369141	922.5654907226562	1191.44287109375	154.798095703125	645.2920532226562	1247.06884765625	147.4303588867188	663.1052856445312	1256.009765625	170.8993835449219	558.6851196289062	1190.941528320312	169.3076019287109	563.294677734375	1073.1591796875	154.6343841552734	411.0248107910156	1097.184448242188	165.2177581787109	356.9049987792969	1034.109130859375	180.1887359619141	299.318603515625	994.3787231445312	172.1995239257812	348.6678466796875	821.843994140625	250.2749633789062	241.7611541748047	889.9703369140625	158.1418304443359	101.0318603515625	931.9388427734375	244.9485931396484	64.42720794677734	1152.405517578125	507.733642578125	961.9217529296875	1279.122192382812	484.3273315429688	680.9964599609375	1224.1298828125	503.0117492675781	692.4091796875	1220.977661132812	465.8628234863281	590.8883056640625	1283.71728515625	456.369384765625	602.7786865234375	1254.549194335938	443.5699768066406	326.7529602050781	1197.0576171875	446.4525146484375	306.8729248046875	1190.446533203125	427.0765380859375	222.0338592529297	1253.915649414062	416.9258117675781	226.6853790283203	1140.50048828125	347.6871337890625	41.96329498291016	1314.211669921875	425.0477294921875	20.57320022583008	1354.102661132812	317.5325317382812	26.63901519775391	
198	0.788	1307.166625976562	351.7771301269531	1744.2880859375	1246.140014648438	273.1948852539062	1699.084716796875	1248.327758789062	420.5386352539062	1694.558837890625	1107.762451171875	335.5769653320312	1526.042846679688	1042.652587890625	253.9557189941406	1331.2353515625	1039.594360351562	396.2085266113281	1326.262451171875	1288.175659179688	335.6480407714844	1367.879150390625	1199.740356445312	164.4523315429688	1483.261108398438	1184.367065429688	69.17294311523438	1322.119140625	1249.736450195312	80.11529541015625	1239.407104492188	1131.880859375	48.27367401123047	1235.567504882812	1181.48681640625	52.89728164672852	1131.514526367188	1149.454711914062	129.0940093994141	1126.794067382812	1290.768676757812	64.4906005859375	953.152587890625	1324.848999023438	110.2929763793945	888.1029663085938	1265.946166992188	58.57652282714844	863.1004028320312	1341.108764648438	56.74307250976562	800.1019287109375	1183.97314453125	505.3321533203125	1477.170166015625	1157.223388671875	592.6895751953125	1305.826293945312	1217.494262695312	591.5682983398438	1223.931518554688	1095.708740234375	611.9724731445312	1228.731689453125	1150.789184570312	614.8529052734375	1121.57958984375	1093.1513671875	556.0389404296875	1122.857421875	1243.38525390625	605.8682250976562	941.9031982421875	1278.876342773438	557.2368774414062	880.2310791015625	1223.015380859375	612.257568359375	860.4490966796875	1296.619873046875	608.5110473632812	800.6279296875	1192.228881835938	156.5450439453125	1072.787475585938	1064.0537109375	325.9842224121094	1046.734130859375	1181.794799804688	501.5985412597656	1075.294311523438	1144.673217773438	144.9700012207031	923.6758422851562	1199.96923828125	155.0497436523438	646.2288818359375	1255.528686523438	147.5142059326172	664.7197875976562	1265.480712890625	171.0745544433594	559.9730224609375	1200.0244140625	169.4051971435547	564.21875	1083.217651367188	155.1983947753906	411.6732482910156	1107.612915039062	165.47509765625	357.4776000976562	1045.099365234375	180.42529296875	299.3677978515625	1004.908935546875	172.4768524169922	348.7712707519531	833.2264404296875	250.7337493896484	239.5138549804688	904.3035278320312	158.17626953125	100.2284851074219	946.310546875	245.2783813476562	64.05448913574219	1157.629760742188	507.8223266601562	962.2465209960938	1281.698486328125	484.5505676269531	680.7042846679688	1227.132202148438	502.41259765625	692.3522338867188	1223.01904296875	466.1816711425781	591.5972900390625	1285.78271484375	456.7220458984375	602.3216552734375	1255.222778320312	443.6402587890625	326.8124084472656	1197.495849609375	446.9422912597656	307.4104309082031	1190.77099609375	427.0001831054688	222.2262420654297	1254.253173828125	416.9674072265625	226.7232971191406	1140.616088867188	347.5661926269531	42.20402145385742	1314.23046875	425.0387268066406	20.59107208251953	1354.185913085938	317.5604553222656	26.61190223693848	
199	0.792	1312.491943359375	351.9750671386719	1745.077026367188	1251.5732421875	273.4801330566406	1699.860961914062	1253.62841796875	420.8980102539062	1695.41796875	1113.05322265625	335.8199157714844	1526.997192382812	1048.3427734375	255.5767364501953	1331.76513671875	1045.095947265625	396.8147583007812	1327.195678710938	1293.673217773438	335.6875305175781	1368.781860351562	1204.734375	164.7411346435547	1484.167236328125	1189.19287109375	69.30567169189453	1323.07568359375	1254.474975585938	80.25526428222656	1240.275390625	1136.523315429688	48.48235321044922	1236.550537109375	1185.898071289062	52.94651794433594	1132.4091796875	1153.948608398438	128.9826965332031	1127.8427734375	1294.92431640625	64.45277404785156	953.9633178710938	1328.790405273438	110.3473510742188	888.5902099609375	1269.948364257812	58.36707305908203	863.9716186523438	1345.02978515625	56.49061965942383	800.7479858398438	1189.520874023438	505.5981140136719	1478.16015625	1163.10888671875	593.0084228515625	1306.8798828125	1223.53564453125	591.8890380859375	1225.2431640625	1101.5791015625	612.2479248046875	1229.586303710938	1157.176879882812	615.1461791992188	1122.562377929688	1102.511596679688	558.3611450195312	1123.094360351562	1250.326171875	605.7391357421875	943.2131958007812	1285.968383789062	556.876220703125	881.9400024414062	1230.351928710938	611.9237060546875	861.805419921875	1304.231079101562	608.1444702148438	802.3739624023438	1197.2099609375	157.1579284667969	1073.911743164062	1069.300659179688	326.5663757324219	1047.752075195312	1185.76513671875	501.5978088378906	1075.894897460938	1150.383544921875	145.2926025390625	924.7936401367188	1208.36083984375	155.4456481933594	647.1181030273438	1263.897094726562	147.7190704345703	665.9937744140625	1274.543212890625	171.5189361572266	561.4833984375	1209.169189453125	169.3534698486328	565.52734375	1093.2978515625	155.7600402832031	412.0769653320312	1118.026611328125	165.9627380371094	358.0893859863281	1056.175415039062	180.50439453125	299.4151916503906	1015.51318359375	173.1746063232422	348.5536499023438	844.5335083007812	251.1337585449219	237.0782775878906	918.6604614257812	158.6303405761719	99.28880310058594	960.8541870117188	245.9633941650391	63.67905807495117	1162.70166015625	507.8521728515625	962.849365234375	1284.46533203125	484.6406860351562	680.3778076171875	1229.623168945312	503.101318359375	692.427734375	1224.684814453125	466.17236328125	591.7862548828125	1287.974853515625	456.8932800292969	602.03857421875	1255.869995117188	443.6084289550781	326.7659912109375	1198.567138671875	446.2618408203125	307.2797241210938	1191.159912109375	426.5475463867188	222.5068206787109	1254.566772460938	417.4013977050781	226.8175201416016	1140.696411132812	347.4827880859375	42.41475677490234	1314.2421875	425.0108642578125	20.6131420135498	1354.28662109375	317.5790710449219	26.59273910522461	
200	0.796	1318.010009765625	352.2171936035156	1745.80078125	1256.771118164062	273.8142395019531	1700.700317382812	1259.189697265625	421.0694274902344	1696.173095703125	1118.366577148438	336.0908203125	1527.780395507812	1053.435668945312	255.3665466308594	1332.569946289062	1050.58447265625	397.6985168457031	1328.008422851562	1299.001586914062	335.8290710449219	1369.735229492188	1209.828247070312	165.1550445556641	1485.152099609375	1193.954223632812	69.59054565429688	1323.975219726562	1259.066040039062	80.30167388916016	1241.062866210938	1141.145263671875	48.6496467590332	1237.455322265625	1190.429321289062	52.959716796875	1133.370971679688	1157.6552734375	129.127685546875	1129.139404296875	1299.170043945312	64.55537414550781	954.7919311523438	1332.74951171875	110.3513641357422	889.3947143554688	1274.0078125	58.1747932434082	864.7272338867188	1348.927856445312	56.45660781860352	801.3001708984375	1195.108032226562	505.6641540527344	1479.152465820312	1168.941284179688	593.4002075195312	1307.841796875	1229.342163085938	592.2657470703125	1226.45849609375	1107.623168945312	612.5184326171875	1230.418823242188	1163.123168945312	615.6334838867188	1123.583374023438	1108.720458984375	558.582275390625	1123.943115234375	1257.447631835938	605.5068359375	944.7349243164062	1293.083251953125	556.465087890625	883.5313110351562	1237.704833984375	611.572265625	863.0606079101562	1311.957153320312	607.521728515625	804.0173950195312	1202.450073242188	157.7263946533203	1074.995361328125	1074.641723632812	327.2179565429688	1048.753051757812	1191.47314453125	501.93017578125	1076.534423828125	1156.076782226562	145.3684692382812	925.916015625	1216.85791015625	155.2598571777344	648.0344848632812	1272.209594726562	147.8790740966797	667.3106689453125	1283.218627929688	171.4321746826172	562.6905517578125	1218.203369140625	169.5276641845703	566.4041137695312	1103.270385742188	156.4483337402344	412.5628967285156	1128.623291015625	165.9846038818359	358.619873046875	1067.177856445312	180.7515716552734	299.5616455078125	1026.132202148438	173.8551788330078	348.0931701660156	856.0370483398438	251.4118041992188	234.4016418457031	932.9744873046875	158.9526519775391	98.00205993652344	976.2410278320312	245.5899353027344	63.15728378295898	1168.020629882812	508.01416015625	963.2357788085938	1287.070434570312	485.1016845703125	680.0787353515625	1232.111206054688	504.0144348144531	692.8577270507812	1227.1337890625	466.4665222167969	592.2774047851562	1290.082275390625	456.8356628417969	601.7899780273438	1256.562377929688	443.5232849121094	326.7261352539062	1199.209228515625	446.1465148925781	307.3959350585938	1191.5224609375	426.4565734863281	222.8083953857422	1255.125854492188	417.4530029296875	226.4981231689453	1140.792236328125	347.3435974121094	42.64169311523438	1314.279663085938	424.9899291992188	20.58577537536621	1354.38818359375	317.5274658203125	26.55255317687988	
